<svg width="24" height="24" viewBox="0 0 24 24" fill="none" xmlns="http://www.w3.org/2000/svg">
<g clip-path="url(#clip0_127_177)">
<path d="M22.68 10.7079C22.9642 11.0623 23.1216 11.5227 23.1216 12.0001C23.1216 12.4775 22.9642 12.9379 22.68 13.2923C20.88 15.4716 16.7828 19.7144 12 19.7144C7.21711 19.7144 3.11997 15.4716 1.31996 13.2923C1.03567 12.9379 0.878296 12.4775 0.878296 12.0001C0.878296 11.5227 1.03567 11.0623 1.31996 10.7079C3.11997 8.52861 7.21711 4.28571 12 4.28571C16.7828 4.28571 20.88 8.52861 22.68 10.7079Z" stroke="black" stroke-width="2" stroke-linecap="round" stroke-linejoin="round"/>
<path d="M12 15.4286C13.8935 15.4286 15.4286 13.8935 15.4286 12C15.4286 10.1064 13.8935 8.57141 12 8.57141C10.1064 8.57141 8.57141 10.1064 8.57141 12C8.57141 13.8935 10.1064 15.4286 12 15.4286Z" stroke="black" stroke-width="2" stroke-linecap="round" stroke-linejoin="round"/>
</g>
<defs>
<clipPath id="clip0_127_177">
<rect width="24" height="24" fill="white"/>
</clipPath>
</defs>
</svg>
