<svg width="100" height="100" viewBox="0 0 100 100" fill="none" xmlns="http://www.w3.org/2000/svg">
<path d="M91.9313 64.3207C92.9061 42.8422 72.9163 19.7718 60.6621 14.3477C42.1751 9.62425 30.7188 16.0203 19.6849 23.8859C11.5638 29.6751 6.78903 35.8596 8.26703 44.9703C9.74503 54.0811 19.1986 56.3436 26.0606 62.0715C32.9226 67.7995 27.3006 82.2242 38.1804 88.5774C49.0602 94.9307 53.1235 84.0444 61.9043 77.937C68.321 73.4739 90.9685 85.5332 91.9313 64.3207Z" fill="white"/>
<path d="M91.9324 64.3205C92.9072 42.842 72.9174 19.7716 60.6632 14.3475C42.1762 9.62407 30.7199 16.0201 19.686 23.8857C11.5649 29.6749 6.79013 35.8594 8.26813 44.9702C9.74612 54.0809 19.1997 56.3434 26.0617 62.0714C32.9237 67.7994 27.3017 82.224 38.1815 88.5772C49.0613 94.9305 53.1246 84.0443 61.9054 77.9368C68.3221 73.4737 90.9696 85.533 91.9324 64.3205Z" fill="#20BEFF"/>
<path d="M59.7373 51.2188C59.6809 52.3466 59.2862 53.418 59.2862 54.5458C59.2862 54.7714 59.1734 55.1097 59.5681 55.1661C59.7937 55.1661 59.9629 54.9969 60.0756 54.7714C60.414 54.0947 60.7523 53.418 61.0906 52.7414C61.8237 51.3316 62.8951 50.2038 64.1921 49.2452C64.756 48.7941 65.4326 48.5121 66.1093 48.343C67.4627 48.0046 68.4213 48.6249 68.7032 49.9783C69.0416 51.5572 68.7596 53.0233 67.7446 54.3203C66.8424 55.5044 65.771 56.4067 64.474 57.1397C62.9515 57.9856 61.3162 58.6059 59.5681 59.0006C58.7223 59.1698 58.2712 59.6209 57.8201 60.3539C56.072 63.2862 54.8314 66.3876 53.4781 69.489C53.3653 69.7146 53.1961 69.8838 53.3089 70.1093C53.76 71.1243 54.1547 72.0829 54.775 72.9852C55.057 73.4363 55.5081 73.1544 55.8464 72.9288C56.9742 72.2521 58.102 71.6318 59.2862 70.9552C60.2448 72.8724 61.4854 74.3949 62.8951 75.861C63.0643 76.0302 63.2898 76.1994 63.459 76.4249C63.741 76.7633 65.3373 78.4263 65.0873 78.5623C63.1196 79.6324 59.8208 81.5484 56.1202 84.823C50.4617 89.8301 47.0979 91.5349 42.9251 95C39.0018 92.0868 34.3079 75.5848 35.113 75.5199C38.5459 75.243 48.313 72.3084 48.094 72.2925C47.8512 72.2749 48.3859 71.8203 47.8064 71.2904C47.2268 70.7605 47.0964 70.8811 46.8227 70.9552C29.1838 75.7276 23.159 74.4497 21.5208 70.9552C18.9949 67.7002 19.9189 60.5919 26.242 43.3807C28.3621 37.3509 29.7387 28.2658 31.8529 28.4398C32.2809 28.4751 32.7222 28.4755 33.1779 28.4375C34.4184 28.3247 35.659 27.93 36.7868 27.3661C37.4071 27.0278 37.8582 27.0841 38.4221 27.5916C40.2265 29.1706 42.5385 29.8472 44.8505 30.0164C46.4294 30.1292 48.0083 29.7344 49.418 29.0014C49.8691 28.7758 50.0947 28.7758 50.3766 29.2833C51.8992 32.272 54.6622 33.287 57.7073 33.9073C59.9629 34.3584 61.9929 33.9073 63.9665 32.9486C64.474 32.7231 64.9815 32.4411 65.771 32.0464C63.7973 37.0651 61.8801 41.8582 60.414 46.8205C60.132 47.1588 60.0756 47.5535 59.9629 47.9482C59.8501 48.343 59.7373 48.7377 59.6245 49.1324C59.8501 49.7527 59.4554 50.4858 59.7373 51.2188Z" fill="#DADCE0"/>
<path d="M54.0042 43.432C54.1479 44.0048 53.9951 44.316 53.8101 44.4568C53.7484 44.5038 53.7484 44.5038 53.6867 44.5507C53.3314 44.7237 52.9115 44.556 52.6297 44.1857C51.4704 42.5344 49.8793 41.2117 47.9974 40.4026C47.2663 40.0819 47.014 39.4944 47.3196 38.8721C47.6546 38.0324 48.427 37.6395 49.4517 37.8341C50.911 38.0878 51.818 39.1516 52.6163 40.2006C53.4441 41.0323 53.6698 42.2248 54.0042 43.432Z" fill="#202124"/>
<path d="M36.1687 31.7954L35.3849 31.5349C34.0549 31.2511 32.226 30.8015 31.7524 31.9887C31.7524 31.9887 31.7287 32.0599 31.705 32.1311C31.4447 32.9146 32.395 33.3886 33.274 33.8389C33.6067 34.0286 33.9629 34.147 34.2243 34.3129C34.4857 34.4789 34.8183 34.6685 35.0797 34.8344C35.8875 35.2611 36.6003 35.7352 36.9337 36.6369C37.1004 37.0878 37.7181 37.3722 38.264 37.1581C38.8099 36.9441 39.1657 36.5877 39.3075 35.923C39.7093 34.2375 38.616 33.2414 37.6418 32.6013C37.1903 32.2931 36.7152 32.0561 36.4301 31.9613C36.3113 31.8428 36.24 31.8191 36.1687 31.7954Z" fill="#202124"/>
<path d="M59.7354 51.2192C59.679 52.347 59.2842 53.4184 59.2842 54.5461C59.2842 54.7717 59.1715 55.11 59.5662 55.1664C59.7917 55.1664 59.9609 54.9973 60.0737 54.7717C60.412 54.095 60.7504 53.4184 61.0887 52.7417C61.8218 51.3319 62.8932 50.2042 64.1901 49.2455C64.754 48.7944 65.4307 48.5125 66.1074 48.3433C67.4607 48.005 68.4193 48.6253 68.7013 49.9786C69.0396 51.5575 68.7577 53.0236 67.7427 54.3206C66.8404 55.5048 65.769 56.407 64.4721 57.1401C62.9496 57.9859 61.3143 58.6062 59.5662 59.0009C58.7203 59.1701 58.2692 59.6212 57.8181 60.3543C56.07 63.2865 54.8295 66.3879 53.4761 69.4894C53.3633 69.7149 53.1942 69.8841 53.307 70.1096C53.7581 71.1247 54.1528 72.0833 54.7731 72.9855C55.055 73.4366 55.5061 73.1547 55.8445 72.9291C56.9723 72.2524 58.1001 71.6322 59.2842 70.9555C60.2429 72.8727 61.4834 74.3952 62.8932 75.8614C63.0623 76.0305 63.2879 76.1997 63.4571 76.4253C63.739 76.7636 64.0773 76.7636 64.4157 76.6508C64.8104 76.4817 64.9232 76.1433 64.9232 75.7486C64.9232 74.9027 64.4157 74.3389 63.8518 73.775C62.9496 72.8727 62.0473 72.0269 61.3143 70.9555C61.1451 70.6735 60.9759 70.448 60.8068 70.166C67.5171 65.3165 72.5358 59.1137 76.8778 52.2342C80.2611 46.9336 81.5017 41.1818 81.3889 34.979C81.3325 32.1595 80.2611 29.622 79.0206 27.1972C75.1861 19.6974 68.8705 14.9607 61.2579 11.8029C57.9873 10.4496 54.5475 9.82929 51.1078 9.26539C47.3297 8.7015 43.5516 9.09622 39.8299 9.88568C38.1946 10.224 36.7284 11.0135 35.2059 11.6338C32.1045 12.8743 29.6798 15.0735 27.3678 17.3291C26.6347 18.0058 26.1272 18.8516 25.6197 19.6974C24.2664 21.953 24.4355 24.0394 26.3528 25.7875C28.27 27.5356 30.4692 28.6634 33.1759 28.4378C34.4165 28.325 35.657 27.9303 36.7848 27.3664C37.4051 27.0281 37.8562 27.0845 38.4201 27.592C40.2246 29.1709 42.5366 29.8476 44.8485 30.0167C46.4274 30.1295 48.0063 29.7348 49.4161 29.0017C49.8672 28.7762 50.0928 28.7762 50.3747 29.2837C51.8972 32.2723 54.6603 33.2873 57.7053 33.9076C59.9609 34.3587 61.9909 33.9076 63.9646 32.949C64.4721 32.7234 64.9796 32.4415 65.769 32.0467C63.7954 37.0654 61.8782 41.8585 60.412 46.8208C60.1301 47.1591 60.0737 47.5539 59.9609 47.9486C59.8481 48.3433 59.7354 48.738 59.6226 49.1328C59.8481 49.753 59.4534 50.4861 59.7354 51.2192Z" fill="#202124"/>
<path d="M37.745 75.2971C36.6173 75.3535 35.4895 75.6355 34.3617 75.8046C31.8805 75.861 29.3994 75.9738 26.9746 75.8046C23.4785 75.5791 19.1929 72.4213 18.5726 68.3613C18.2907 66.6696 18.2907 64.9779 18.5162 63.2298C18.8546 60.4104 19.4748 57.6473 20.3207 54.9406C20.9453 52.8395 23.2042 47.2139 25.0203 41.6561C26.8111 36.1758 28.1564 30.7614 29.1923 28.8576C29.8125 28.6321 30.3201 28.6885 30.4328 29.4779C29.4941 31.6682 28.0939 36.8979 26.3734 42.3327C24.3732 48.651 22.059 55.2616 21.3921 57.9292C20.7154 60.7487 20.1515 63.5682 20.2643 66.444C20.3771 70.4477 23.1966 72.816 25.9032 73.5491C28.4972 74.2258 31.2039 74.1694 33.7978 73.6619C37.745 72.9288 41.5795 71.9138 45.4704 71.0116C46.0907 70.8424 46.711 70.8424 47.3313 70.9552C47.726 71.0116 47.9515 71.2935 48.0643 71.6883C48.1771 72.083 47.9515 72.4213 47.6132 72.5905C47.2749 72.816 46.8801 72.9288 46.4854 73.098C43.7223 74.0002 40.9029 74.7332 38.027 75.2407C37.9142 75.2407 37.8014 75.2407 37.745 75.2971Z" fill="#202124"/>
<path d="M40.9275 58.957C39.4009 59.4454 37.8936 59.5777 36.3215 59.26C33.7225 58.7794 31.4976 57.6583 29.6358 55.7712C29.4674 55.5835 29.2991 55.3957 29.0783 55.1873C28.7525 54.9374 28.4806 55.0119 28.3356 55.379C28.2224 55.8193 28.1616 56.2803 28.0691 56.6682C27.7942 58.4391 27.4668 60.1892 27.6529 62.0209C28.1962 66.4793 32.4679 68.7118 36.4696 66.715C39.1655 65.4151 41.4407 61.3422 40.9275 58.957Z" fill="#202124"/>
<path d="M36.4037 45.1528C35.6706 45.9422 34.8248 46.5625 33.8661 47.0136C33.6406 47.1828 33.415 47.3519 33.1895 47.4647C30.9903 48.7053 31.2722 51.7503 32.9639 52.9909C34.2609 53.9495 35.727 54.2315 37.3059 53.724C37.5879 53.6676 37.8698 53.4984 37.8134 53.1601C37.757 52.8217 37.4751 52.7653 37.1931 52.7653C36.6292 52.7653 36.1217 52.8217 35.5578 52.7653C33.9789 52.6526 32.8511 51.4684 33.1331 49.4384C33.1895 49.0436 33.5278 48.8181 33.8098 48.5925C34.5428 48.085 35.2759 47.5775 35.9526 47.0136C37.8134 45.5475 39.4487 43.7994 40.8021 41.7694C41.1968 41.1491 41.4787 40.5288 41.5915 39.7958C41.5915 39.6266 41.6479 39.4574 41.4223 39.2882C40.8584 39.9085 40.5765 40.7544 40.069 41.3747C39.5051 42.0513 38.9412 42.728 38.3209 43.3483C37.6442 44.025 37.0803 44.7016 36.4037 45.1528Z" fill="#202124"/>
<path d="M35.6568 41.0688C35.4876 39.4899 34.8109 38.1929 33.6268 37.2343C33.1193 36.8396 32.499 36.8959 32.1606 37.2907C31.8223 37.7418 31.8787 38.2493 32.2734 38.644C33.232 39.5462 33.7959 40.6176 34.1343 41.8582C34.2471 42.1966 34.4726 42.4785 34.9237 42.4785C35.3185 42.4221 35.4876 42.1402 35.6004 41.7454C35.6004 41.6327 35.6568 41.5763 35.6568 41.4635C35.6568 41.2943 35.6568 41.1815 35.6568 41.0688Z" fill="#202124"/>
<path d="M29.7899 40.7869C29.7899 41.4072 30.0718 41.6892 30.6921 41.6892C31.4252 41.6892 32.0455 41.0689 32.0455 40.3358C32.0455 39.7155 31.5943 39.208 30.9741 39.208C30.3538 39.2644 29.7899 39.9975 29.7899 40.7869Z" fill="#202124"/>
<path d="M76.3133 34.584C76.4261 38.5877 75.693 42.4785 74.0577 46.1439C73.7758 46.7642 73.5502 47.3844 73.3811 48.0611C73.2683 48.3994 73.3247 48.7942 73.7194 49.0197C74.1705 49.3017 74.5089 49.1325 74.8472 48.8506C75.2983 48.4558 75.5803 47.9483 75.8622 47.3844C77.3283 44.565 78.1178 41.5199 78.287 38.3057C78.3997 36.3885 78.5125 34.4149 78.0614 32.4976C77.9486 32.1029 77.8358 31.7082 77.7231 31.3698C77.5539 30.9751 77.2719 30.5804 76.8208 30.6931C76.4261 30.8059 76.3697 31.2007 76.3697 31.5954C76.3697 32.3284 76.4261 33.0615 76.4261 33.7382C76.3133 34.0765 76.3133 34.3021 76.3133 34.584Z" fill="#F8F9FA"/>
<path d="M75.7504 28.2123C76.2015 28.2123 76.4271 27.9867 76.4271 27.592C76.4271 27.2536 76.3143 26.9717 76.0888 26.7461C75.7504 26.3514 75.4685 25.7875 74.8482 25.9567C74.5099 26.0695 74.3971 26.3514 74.4535 26.6898C74.5099 27.3664 75.2429 28.2123 75.7504 28.2123Z" fill="#E8EAED"/>
<path d="M28.8761 62.1412C29.0595 63.3656 29.7026 64.3471 30.4603 65.1919C31.6706 66.5792 33.8183 66.8211 35.7826 65.8386C36.9739 65.2783 37.0871 64.838 36.2453 63.8993C34.9507 62.4181 33.5112 61.304 31.3662 61.6695C30.5187 61.8199 29.6602 61.8446 28.8761 62.1412Z" fill="white"/>
<path d="M50.7691 47.7231C50.7691 46.2006 50.3743 45.0728 49.4721 44.1706C48.9082 43.5503 48.3443 43.4375 47.9496 43.7758C47.4421 44.2269 47.6113 44.7908 47.8932 45.242C48.5699 46.257 48.8518 47.3848 48.8518 48.5689C48.8518 49.1328 49.0774 49.5839 49.6413 49.6403C50.2616 49.6967 50.4871 49.1892 50.5999 48.6817C50.7127 48.287 50.7127 47.8923 50.7691 47.7231Z" fill="#202124"/>
<path d="M45.4143 48.0612C46.2037 48.0048 47.0496 46.8206 46.9368 46.0876C46.824 45.58 46.3729 45.3545 45.9218 45.5237C45.3579 45.7492 44.6812 46.7642 44.7376 47.3281C44.7376 47.7792 45.0195 48.0612 45.4143 48.0612Z" fill="#202124"/>
<path d="M59.5181 51.0293C59.4609 52.1521 59.0603 53.2186 59.0603 54.3414C59.0603 54.5659 58.9459 54.9027 59.3465 54.9589C59.5754 54.9589 59.747 54.7904 59.8615 54.5659C60.2049 53.8923 60.5482 53.2186 60.8916 52.545C61.6355 51.1416 62.7228 50.0189 64.039 49.0646C64.6113 48.6155 65.298 48.3348 65.9847 48.1664C67.3581 47.8296 68.3309 48.4471 68.6171 49.7943C68.9604 51.3662 68.6743 52.8257 67.6442 54.1168C66.7286 55.2957 65.6413 56.1938 64.3251 56.9236C62.78 57.7657 61.1205 58.3832 59.3465 58.7761C58.4881 58.9445 58.0303 59.3936 57.5725 60.1234C55.7985 63.0424 54.5395 66.1299 53.1661 69.2174C53.0516 69.4419 52.8799 69.6103 52.9944 69.8349C53.4522 70.8453 53.8528 71.7996 54.4823 72.6978C54.7684 73.1469 55.2262 72.8662 55.5696 72.6417C56.7141 71.968 57.8586 71.3506 59.0603 70.6769C60.0332 72.5855 61.2921 74.1012 62.7228 75.5607C62.8945 75.7292 63.1234 75.8976 63.2951 76.1221C63.5812 76.4589 63.9245 76.4589 64.2679 76.3466C64.6685 76.1782 64.7829 75.8414 64.7829 75.4485C64.7829 74.6064 64.2679 74.0451 63.6956 73.4837C62.78 72.5855 61.8644 71.7435 61.1205 70.6769C60.9488 70.3962 60.7771 70.1717 60.6054 69.891C67.4153 65.0633 72.5084 58.8884 76.9148 52.0398C80.3484 46.763 81.6074 41.0371 81.4929 34.8622C81.4357 32.0554 80.3484 29.5293 79.0894 27.1154C75.1981 19.6493 68.7887 14.9339 61.0632 11.7903C57.7441 10.4431 54.2534 9.82556 50.7626 9.2642C46.9284 8.70284 43.0943 9.09579 39.3174 9.88169C37.6578 10.2185 36.17 11.0044 34.6249 11.6219C31.4774 12.8569 29.0167 15.0462 26.6705 17.2916C25.9265 17.9653 25.4115 18.8073 24.8965 19.6493C23.523 21.8948 23.6947 23.9718 25.6404 25.712C27.5861 27.4522 29.8179 28.575 32.5647 28.3504C33.8237 28.2381 35.0827 27.8452 36.2272 27.2838C36.8567 26.947 37.3145 27.0032 37.8867 27.5084C39.718 29.0802 42.0642 29.7538 44.4105 29.9222C46.0128 30.0345 47.6151 29.6415 49.0458 28.9118C49.5036 28.6872 49.7325 28.6872 50.0186 29.1925C51.5637 32.1677 54.3678 33.1781 57.458 33.7956C59.747 34.2447 61.8072 33.7956 63.8101 32.8413C64.3251 32.6168 65.6413 31.8061 65.6413 31.9431C65.6413 32.0801 61.6927 41.7108 60.2049 46.6507C59.9187 46.9876 59.8615 47.3805 59.747 47.7735C59.6326 48.1664 59.5181 48.5594 59.4037 48.9523C59.6326 49.5698 59.232 50.2996 59.5181 51.0293Z" fill="#80868B"/>
<path fill-rule="evenodd" clip-rule="evenodd" d="M59.4754 50.9036C59.4875 50.9455 59.5017 50.9874 59.5181 51.0293C59.5049 51.289 59.4733 51.5457 59.4325 51.8008C59.4311 51.8096 59.4297 51.8185 59.4283 51.8273C59.3883 52.0735 59.3401 52.3182 59.2919 52.5627C59.2669 52.6895 59.2419 52.8163 59.2181 52.9432C59.1417 53.3505 59.0773 53.7589 59.0632 54.1744C59.0613 54.2299 59.0603 54.2856 59.0603 54.3414C59.0603 54.3809 59.0568 54.424 59.0531 54.4683C59.036 54.6759 59.0165 54.9126 59.3465 54.9589C59.5754 54.9589 59.747 54.7904 59.8615 54.5659L60.8916 52.545C61.0873 52.1757 61.3069 51.8258 61.5481 51.4933C62.2236 50.5624 63.0692 49.7678 64.039 49.0646C64.6113 48.6155 65.298 48.3348 65.9847 48.1664C67.3581 47.8296 68.3309 48.4471 68.6171 49.7943C68.9604 51.3662 68.6743 52.8257 67.6442 54.1168C66.7286 55.2957 65.6413 56.1938 64.3251 56.9236C62.78 57.7656 61.1205 58.3831 59.3465 58.7761C58.4881 58.9445 58.0303 59.3936 57.5725 60.1234C56.0871 62.5674 54.9628 65.1296 53.8301 67.711C53.61 68.2126 53.3895 68.715 53.1661 69.2174C53.1407 69.2671 53.1126 69.314 53.0854 69.3594C52.9896 69.5192 52.9053 69.66 52.9944 69.8349C53.0456 69.9479 53.096 70.0601 53.1462 70.1717C53.5446 71.058 53.9232 71.9001 54.4823 72.6978C54.7684 73.1469 55.2262 72.8662 55.5696 72.6417C56.1328 72.3101 56.6961 71.9922 57.2662 71.6745C57.5034 71.5423 57.7418 71.4101 57.9819 71.277C58.2457 71.1308 58.5115 70.9835 58.7799 70.8337C58.873 70.7818 58.9665 70.7295 59.0603 70.6769C59.0765 70.7086 59.0927 70.7402 59.1091 70.7717C59.255 71.0534 59.4073 71.3265 59.5654 71.5922C59.5836 71.6228 59.6019 71.6534 59.6203 71.6838C59.7319 71.8685 59.8464 72.0497 59.9637 72.2276C60.3575 72.8255 60.7823 73.3871 61.2331 73.9269C61.7032 74.4898 62.2016 75.029 62.7228 75.5607C62.778 75.6149 62.8392 75.6691 62.9025 75.7252C63.0359 75.8434 63.1786 75.9698 63.2951 76.1221C63.5812 76.4589 63.9245 76.4589 64.2679 76.3466C64.6685 76.1782 64.7829 75.8414 64.7829 75.4485C64.7829 75.3107 64.7691 75.1804 64.7436 75.0564C64.7366 75.0229 64.7288 74.9897 64.7202 74.9571C64.6856 74.8256 64.6375 74.7011 64.5788 74.5822C64.5489 74.5218 64.5164 74.4628 64.4813 74.4051C64.2788 74.0712 63.9951 73.7774 63.6956 73.4837C63.5808 73.3711 63.466 73.2594 63.3516 73.148C63.1547 72.9564 62.9588 72.7657 62.7657 72.5732C62.1755 71.9851 61.6107 71.3798 61.1205 70.6769C61.0346 70.5366 60.9488 70.4103 60.863 70.284C60.7815 70.1642 60.7001 70.0444 60.6187 69.9126C60.6143 69.9054 60.6099 69.8982 60.6054 69.891C60.693 69.8289 60.7804 69.7666 60.8674 69.704C67.5462 64.9043 72.5651 58.8003 76.9148 52.0398C80.3484 46.763 81.6074 41.0371 81.4929 34.8622C81.4357 32.0554 80.3484 29.5293 79.0894 27.1154C75.1981 19.6493 68.7887 14.9339 61.0632 11.7903C57.7441 10.4431 54.2534 9.82556 50.7626 9.2642C46.9284 8.70284 43.0943 9.09579 39.3174 9.88169C38.1052 10.1277 36.9846 10.6133 35.8665 11.0979C35.4538 11.2767 35.0414 11.4554 34.6249 11.6219C31.4774 12.8569 29.0167 15.0462 26.6705 17.2916C25.9265 17.9653 25.4115 18.8073 24.8965 19.6493C23.523 21.8948 23.6947 23.9718 25.6404 25.712C27.5861 27.4522 29.8179 28.575 32.5647 28.3504C33.8237 28.2381 35.0827 27.8452 36.2272 27.2838C36.8567 26.947 37.3145 27.0032 37.8867 27.5084C39.718 29.0802 42.0642 29.7538 44.4105 29.9222C46.0128 30.0345 47.6151 29.6415 49.0458 28.9118C49.5036 28.6872 49.7325 28.6872 50.0186 29.1925C51.5637 32.1677 54.3678 33.1781 57.458 33.7956C59.4188 34.1803 61.2117 33.9059 62.9445 33.2195C63.2312 33.1059 63.5163 32.981 63.8002 32.846C63.8035 32.8444 63.8068 32.8429 63.8101 32.8413C64.0129 32.7529 64.34 32.5735 64.662 32.397C65.0285 32.1961 65.3883 31.9988 65.551 31.9431C65.6084 31.9235 65.6413 31.9215 65.6413 31.9431C65.6413 31.9782 65.3831 32.6339 64.9739 33.6733C64.9545 33.7226 64.9348 33.7727 64.9148 33.8236C64.8292 34.041 64.7376 34.2736 64.641 34.5195C64.6302 34.5471 64.6192 34.5749 64.6082 34.6029C64.5917 34.645 64.575 34.6874 64.5582 34.7302C63.2777 37.9914 61.1957 43.3611 60.2049 46.6507C59.9731 46.9235 59.8915 47.2331 59.8081 47.5497C59.7885 47.624 59.7688 47.6987 59.747 47.7735L59.4037 48.9523C59.5121 49.2448 59.4793 49.5624 59.4452 49.8933C59.4113 50.221 59.3762 50.5616 59.4754 50.9036ZM61.7371 48.2956C61.7636 48.2029 61.7888 48.1072 61.8066 48.0393C61.8115 48.0207 61.8159 48.0042 61.8195 47.9904C61.8352 47.9317 61.8461 47.8929 61.8545 47.8651L62.0597 47.6236L62.1803 47.2233C62.8995 44.8351 64.2323 41.2586 65.4076 38.2107C65.9783 36.7309 66.5049 35.3933 66.8959 34.4L66.9226 34.3322C67.1185 33.8346 67.2809 33.422 67.3941 33.1298C67.4502 32.985 67.4981 32.8599 67.5332 32.765C67.5499 32.7197 67.5693 32.6663 67.5864 32.6153C67.5942 32.592 67.6086 32.5486 67.6231 32.4972C67.6301 32.4726 67.6431 32.4253 67.6559 32.366L67.6566 32.3628C67.6636 32.3309 67.7011 32.1597 67.7011 31.9431C67.7011 31.5172 67.5583 30.9631 67.0996 30.5098C66.6831 30.098 66.2097 29.9735 65.9521 29.933C65.5073 29.8631 65.1481 29.9562 65.0687 29.9767C65.0664 29.9773 65.0643 29.9779 65.0625 29.9784C64.8313 30.0377 64.6334 30.1278 64.5557 30.1634C64.3517 30.257 64.113 30.3847 63.9214 30.4888C63.794 30.5579 63.678 30.6214 63.5736 30.6785C63.2834 30.8374 63.0826 30.9473 62.9735 30.9949L62.9416 31.0088L62.9101 31.0238C61.1995 31.8388 59.6022 32.1549 57.8652 31.8149C54.9115 31.2243 52.9479 30.3816 51.854 28.2753L51.8372 28.2429L51.8192 28.2112C51.6248 27.8679 51.1223 27.0577 50.0737 26.8128C49.1514 26.5974 48.3775 26.9796 48.1451 27.0944C48.1377 27.0981 48.1309 27.1014 48.1246 27.1045L48.11 27.1117L48.0955 27.1191C46.9469 27.705 45.7224 27.9881 44.5587 27.9069C42.4921 27.7582 40.6353 27.1784 39.252 25.9953C38.8105 25.608 38.1853 25.1881 37.3543 25.078C36.517 24.967 35.8065 25.2136 35.2792 25.4897C34.3321 25.9507 33.3341 26.2518 32.3859 26.3374C30.4015 26.4973 28.7119 25.7248 27.0282 24.2189C26.3447 23.6075 26.1197 23.0805 26.0711 22.6485C26.0198 22.1918 26.1343 21.5529 26.6627 20.6889C27.2033 19.8052 27.5765 19.2211 28.0676 18.7764L28.0885 18.7574L28.1089 18.7379C30.451 16.4965 32.6577 14.57 35.3899 13.498L35.3959 13.4956L35.402 13.4932C35.9539 13.2726 36.4395 13.062 36.8877 12.8677C37.9173 12.4212 38.7497 12.0603 39.7347 11.8604L39.7398 11.8593L39.7448 11.8583C43.3872 11.1004 46.9492 10.7512 50.4442 11.2606C53.9353 11.8221 57.2044 12.411 60.274 13.6567M61.7371 48.2956C62.0741 48.0014 62.4245 47.7238 62.7853 47.461C63.6451 46.796 64.6146 46.4196 65.4851 46.2062C66.568 45.9406 67.7682 45.9925 68.8127 46.643C69.8508 47.2896 70.4075 48.3237 70.6323 49.3764C71.0905 51.4804 70.7025 53.5556 69.2749 55.3514C68.1776 56.7613 66.8732 57.8318 65.3387 58.6827L65.3321 58.6863L65.3255 58.6899C63.6041 59.628 61.7598 60.313 59.8002 60.7471L59.7754 60.7526L59.7504 60.7574C59.6755 60.7721 59.6419 60.7864 59.6335 60.7902C59.6269 60.7932 59.6237 60.795 59.6158 60.8013C59.5909 60.8214 59.5049 60.8999 59.3339 61.171C57.9278 63.4871 56.8667 65.9037 55.7361 68.4788C55.5572 68.8863 55.3765 69.2977 55.1925 69.7133C55.2946 69.938 55.3913 70.1472 55.4874 70.3452C55.9894 70.0607 56.4933 69.7813 56.9945 69.5034C57.3444 69.3095 57.6929 69.1162 58.0384 68.9226L59.9289 67.8628L59.9324 67.8696C66.1918 63.3021 70.9672 57.4981 75.1729 50.9613L75.1757 50.957L75.1786 50.9526C78.3497 46.0792 79.5419 40.7659 79.4335 34.9009C79.3856 32.575 78.4844 30.3917 77.2557 28.0358C73.6483 21.1146 67.6898 16.6744 60.274 13.6567" fill="#202124"/>
<path d="M56.1699 22.4354C53.3765 25.3035 51.9525 25.881 48.1848 27.2596C47.5436 27.4892 46.7372 27.7553 45.961 28.1289C45.6398 28.2836 45.396 28.5988 45.509 29.039C45.6208 29.5589 45.9777 29.6838 46.4154 29.7302C47.0126 29.779 47.573 29.628 48.1738 29.4376C51.2169 28.5265 54.1306 26.9117 56.554 24.7954C58.5562 23.4036 56.9992 22.0452 56.1699 22.4354Z" fill="#202124"/>
<path d="M42.3168 21.1267C39.5234 23.9948 38.0993 24.5723 34.3317 25.9509C33.6904 26.1805 32.884 26.4466 32.1079 26.8203C31.7867 26.9749 31.5428 27.2902 31.6558 27.7303C31.7676 28.2502 32.1245 28.3751 32.5623 28.4215C33.1595 28.4703 33.7198 28.3193 34.3206 28.1289C37.3638 27.2178 40.2775 25.603 42.7009 23.4867C44.7031 22.0949 43.146 20.7366 42.3168 21.1267Z" fill="#202124"/>
<path d="M74.223 27.8363C74.448 27.8363 74.5605 27.6407 74.5605 27.2984C74.5605 27.005 74.5043 26.7605 74.3918 26.5649C74.223 26.2226 74.0824 25.7336 73.773 25.8803C73.6042 25.9781 73.5479 26.2226 73.5761 26.516C73.6042 27.1028 73.9699 27.8363 74.223 27.8363Z" fill="#202124"/>
</svg>
