<svg width="400" height="400" viewBox="0 0 400 400" fill="none" xmlns="http://www.w3.org/2000/svg">
<path d="M364.063 200C364.063 215.143 359.572 229.945 351.16 242.536C342.747 255.127 330.79 264.94 316.8 270.735C302.81 276.529 287.415 278.046 272.564 275.091C257.712 272.137 244.07 264.845 233.363 254.137C233.206 253.981 233.055 253.821 232.909 253.655L150.945 161.107C143.272 153.522 133.526 148.376 122.935 146.317C112.345 144.259 101.381 145.379 91.4254 149.536C81.4695 153.694 72.9659 160.704 66.9847 169.683C61.0036 178.663 57.8122 189.211 57.8122 200C57.8122 210.789 61.0036 221.337 66.9847 230.317C72.9659 239.296 81.4695 246.306 91.4254 250.464C101.381 254.622 112.345 255.741 122.935 253.683C133.526 251.624 143.272 246.478 150.945 238.893L162.592 225.742C163.544 224.665 164.698 223.786 165.99 223.155C167.282 222.525 168.685 222.155 170.12 222.067C171.555 221.979 172.993 222.175 174.352 222.643C175.711 223.112 176.964 223.843 178.04 224.796C179.116 225.749 179.994 226.905 180.623 228.198C181.252 229.49 181.62 230.894 181.706 232.329C181.793 233.764 181.595 235.202 181.125 236.56C180.655 237.919 179.922 239.171 178.967 240.246L167.091 253.655C166.945 253.82 166.794 253.981 166.637 254.137C155.93 264.845 142.288 272.137 127.436 275.091C112.584 278.046 97.1902 276.529 83.2002 270.735C69.2102 264.94 57.2527 255.127 48.8398 242.536C40.427 229.945 35.9366 215.143 35.9366 200C35.9366 184.857 40.427 170.055 48.8398 157.464C57.2527 144.873 69.2102 135.06 83.2002 129.265C97.1902 123.471 112.584 121.954 127.436 124.909C142.288 127.863 155.93 135.155 166.637 145.863C166.794 146.019 166.945 146.179 167.091 146.345L249.055 238.893C256.728 246.478 266.474 251.624 277.065 253.683C287.655 255.741 298.619 254.622 308.575 250.464C318.531 246.306 327.034 239.296 333.015 230.317C338.996 221.337 342.188 210.789 342.188 200C342.188 189.211 338.996 178.663 333.015 169.683C327.034 160.704 318.531 153.694 308.575 149.536C298.619 145.379 287.655 144.259 277.065 146.317C266.474 148.376 256.728 153.522 249.055 161.107L237.408 174.258C235.483 176.424 232.778 177.738 229.885 177.911C226.992 178.085 224.149 177.103 221.98 175.181C219.81 173.26 218.492 170.556 218.314 167.664C218.137 164.771 219.114 161.926 221.033 159.754L232.909 146.345C233.055 146.18 233.206 146.019 233.363 145.863C244.07 135.155 257.712 127.864 272.564 124.909C287.415 121.955 302.809 123.472 316.799 129.266C330.789 135.061 342.746 144.874 351.159 157.465C359.572 170.055 364.062 184.857 364.063 200Z" fill="#3B82F6"/>
</svg>
